# xmcd
#
# Track frame offsets: 
#        150
#        17495
#        34970
#        54008
#        75930
#        92483
#        108550
#        126458
#        147375
#        161508
#
# Disc length: 2376 seconds
#
# Revision: 2
# Processed by: cddbd v1.4PL0 Copyright (c) Steve Scherf et al.
# Submitted via: ExactAudioCopy v0.90b4
#
DISCID=7509460a
DTITLE=Dan Seals - Greatest Hits
DYEAR=1900
DGENRE=Country
TTITLE0=Love On Arrival
TTITLE1=Big Wheels In The Moonlight
TTITLE2=Addicted
TTITLE3=Everything That Glitters (Is Not Gold)
TTITLE4=Bop
TTITLE5=Good Times
TTITLE6=Bordertown
TTITLE7=They Rage On
TTITLE8=Water Under The Bridge
TTITLE9=Ball And Chain
EXTD=One of the 1980's most consistent hit-makers, Dan Seals Looks for
EXTD=\nsongs he believes in when he enters the studio.  His is a body 
EXTD=of\nwork rich in imagery, detail and insight.  This package inclu
EXTD=des some\nof his most successful recordings, as well as the new "
EXTD=Ball And Chain"\nwhich is a mid-tempo, driving number with a conc
EXTD=ept twist.\nHis No. 1 song, "Bop", was released in October 1985, 
EXTD=going on to become\nthe anthem for a generation and one of the bi
EXTD=ggest hits of the decade.\nTHen, in April of 1986, Seals released
EXTD=a single that became an overnight\ncountry classic. "Everything 
EXTD=That Glitters (Is Not Gold)" soared to\nthe top chart position an
EXTD=d was almost immediately a regular on radio\nrecurrent playlists.
EXTD=Both songs garnered the artist songwriting\nawards and generate
EXTD=d even more fans for the writer/artist.\nIn June of 1988 Seals re
EXTD=leased a song written by a woman who would\nlater become a Capito
EXTD=l Nashville labelmate, CCheryl Wheeler, and \n"Addicted" was adde
EXTD=d to Seals Formidable History of Hits.  He finished\nthe year wit
EXTD=h another monster hit, "BIg Wheels In The Moonlight", and\nin Mar
EXTD=ch of 1989, "They Rage On" started it's chart climb, making\nanot
EXTD=her immense impact on country listeners. He started the '90s with
EXTD=an even\nbigger success, when "Love on Arrival" stayed at the No
EXTD=1 spot in\nBillboard for three straight weeks.\nDan Seals has b
EXTD=een pleasing audiences for some time now, and as it\nturns out, h
EXTD=e does it by pleasing himself: "If there's anything I can \ndo wi
EXTD=th my songs that's enlightening or that makes people happy, then\n
EXTD=I'm Happy."\n
EXTT0=
EXTT1=
EXTT2=
EXTT3=
EXTT4=
EXTT5=
EXTT6=
EXTT7=
EXTT8=
EXTT9=
PLAYORDER=
